<svg id="visual" viewBox="0 0 900 600" width="900" height="600" xmlns="http://www.w3.org/2000/svg" xmlns:xlink="http://www.w3.org/1999/xlink" version="1.1"><g stroke-width="1" stroke-linejoin="bevel"><path d="M478 304L385 391L495 382Z" fill="#00306e" stroke="#00306e"></path><path d="M478 304L387 272L385 391Z" fill="#00101c" stroke="#00101c"></path><path d="M478 304L409 227L387 272Z" fill="#003da1" stroke="#003da1"></path><path d="M267 190L291 339L387 272Z" fill="#003990" stroke="#003990"></path><path d="M387 272L291 339L385 391Z" fill="#0941b1" stroke="#0941b1"></path><path d="M606 461L591 389L495 382Z" fill="#00254d" stroke="#00254d"></path><path d="M495 382L591 389L478 304Z" fill="#002b5d" stroke="#002b5d"></path><path d="M478 304L482 196L409 227Z" fill="#00357f" stroke="#00357f"></path><path d="M618 261L482 196L478 304Z" fill="#00182b" stroke="#00182b"></path><path d="M321 486L439 520L385 391Z" fill="#0941b1" stroke="#0941b1"></path><path d="M385 391L439 520L495 382Z" fill="#00101c" stroke="#00101c"></path><path d="M291 339L273 385L385 391Z" fill="#002b5d" stroke="#002b5d"></path><path d="M439 520L467 521L495 382Z" fill="#00357f" stroke="#00357f"></path><path d="M273 385L321 486L385 391Z" fill="#00357f" stroke="#00357f"></path><path d="M467 521L606 461L495 382Z" fill="#00357f" stroke="#00357f"></path><path d="M703 339L618 261L591 389Z" fill="#00306e" stroke="#00306e"></path><path d="M591 389L618 261L478 304Z" fill="#001f3c" stroke="#001f3c"></path><path d="M419 96L267 190L409 227Z" fill="#00254d" stroke="#00254d"></path><path d="M409 227L267 190L387 272Z" fill="#003da1" stroke="#003da1"></path><path d="M291 339L171 298L273 385Z" fill="#1b44c2" stroke="#1b44c2"></path><path d="M606 461L676 416L591 389Z" fill="#00182b" stroke="#00182b"></path><path d="M321 486L389 600L439 520Z" fill="#002b5d" stroke="#002b5d"></path><path d="M439 520L389 600L467 521Z" fill="#003990" stroke="#003990"></path><path d="M467 521L529 600L606 461Z" fill="#003da1" stroke="#003da1"></path><path d="M168 433L229 497L273 385Z" fill="#00357f" stroke="#00357f"></path><path d="M273 385L229 497L321 486Z" fill="#0941b1" stroke="#0941b1"></path><path d="M321 486L274 600L389 600Z" fill="#00357f" stroke="#00357f"></path><path d="M694 207L629 188L618 261Z" fill="#00101c" stroke="#00101c"></path><path d="M618 261L629 188L482 196Z" fill="#1b44c2" stroke="#1b44c2"></path><path d="M482 196L419 96L409 227Z" fill="#003990" stroke="#003990"></path><path d="M476 86L419 96L482 196Z" fill="#00254d" stroke="#00254d"></path><path d="M389 600L529 600L467 521Z" fill="#002b5d" stroke="#002b5d"></path><path d="M606 461L661 517L676 416Z" fill="#1b44c2" stroke="#1b44c2"></path><path d="M676 416L703 339L591 389Z" fill="#00182b" stroke="#00182b"></path><path d="M622 119L476 86L482 196Z" fill="#001f3c" stroke="#001f3c"></path><path d="M267 190L171 298L291 339Z" fill="#001f3c" stroke="#001f3c"></path><path d="M606 600L661 517L606 461Z" fill="#00306e" stroke="#00306e"></path><path d="M830 385L762 303L703 339Z" fill="#003990" stroke="#003990"></path><path d="M171 298L168 433L273 385Z" fill="#00254d" stroke="#00254d"></path><path d="M267 190L204 176L171 298Z" fill="#002b5d" stroke="#002b5d"></path><path d="M170 96L204 176L267 190Z" fill="#00182b" stroke="#00182b"></path><path d="M229 497L274 600L321 486Z" fill="#00357f" stroke="#00357f"></path><path d="M215 600L274 600L229 497Z" fill="#001f3c" stroke="#001f3c"></path><path d="M703 339L694 207L618 261Z" fill="#003990" stroke="#003990"></path><path d="M629 188L622 119L482 196Z" fill="#003990" stroke="#003990"></path><path d="M529 600L606 600L606 461Z" fill="#00182b" stroke="#00182b"></path><path d="M694 207L622 119L629 188Z" fill="#003990" stroke="#003990"></path><path d="M413 0L337 60L419 96Z" fill="#1b44c2" stroke="#1b44c2"></path><path d="M419 96L337 60L267 190Z" fill="#00306e" stroke="#00306e"></path><path d="M204 176L135 265L171 298Z" fill="#001f3c" stroke="#001f3c"></path><path d="M171 298L73 363L168 433Z" fill="#001f3c" stroke="#001f3c"></path><path d="M830 385L703 339L676 416Z" fill="#001f3c" stroke="#001f3c"></path><path d="M703 339L762 303L694 207Z" fill="#003990" stroke="#003990"></path><path d="M134 530L215 600L229 497Z" fill="#00182b" stroke="#00182b"></path><path d="M0 475L134 530L168 433Z" fill="#1b44c2" stroke="#1b44c2"></path><path d="M168 433L134 530L229 497Z" fill="#00101c" stroke="#00101c"></path><path d="M525 0L413 0L476 86Z" fill="#1b44c2" stroke="#1b44c2"></path><path d="M476 86L413 0L419 96Z" fill="#00306e" stroke="#00306e"></path><path d="M204 176L134 167L135 265Z" fill="#0941b1" stroke="#0941b1"></path><path d="M135 265L73 363L171 298Z" fill="#00357f" stroke="#00357f"></path><path d="M170 96L134 167L204 176Z" fill="#001f3c" stroke="#001f3c"></path><path d="M170 96L267 190L337 60Z" fill="#002b5d" stroke="#002b5d"></path><path d="M606 600L702 600L661 517Z" fill="#003da1" stroke="#003da1"></path><path d="M823 470L830 385L676 416Z" fill="#1b44c2" stroke="#1b44c2"></path><path d="M577 0L525 0L476 86Z" fill="#00306e" stroke="#00306e"></path><path d="M577 0L476 86L622 119Z" fill="#003990" stroke="#003990"></path><path d="M0 306L73 363L135 265Z" fill="#00254d" stroke="#00254d"></path><path d="M274 0L170 96L337 60Z" fill="#00101c" stroke="#00101c"></path><path d="M808 138L672 62L694 207Z" fill="#001f3c" stroke="#001f3c"></path><path d="M694 207L672 62L622 119Z" fill="#0941b1" stroke="#0941b1"></path><path d="M672 62L577 0L622 119Z" fill="#1b44c2" stroke="#1b44c2"></path><path d="M413 0L274 0L337 60Z" fill="#002b5d" stroke="#002b5d"></path><path d="M134 530L130 600L215 600Z" fill="#00254d" stroke="#00254d"></path><path d="M0 600L130 600L134 530Z" fill="#00357f" stroke="#00357f"></path><path d="M823 470L676 416L661 517Z" fill="#003da1" stroke="#003da1"></path><path d="M762 303L830 194L694 207Z" fill="#003990" stroke="#003990"></path><path d="M777 600L823 470L661 517Z" fill="#003990" stroke="#003990"></path><path d="M702 600L777 600L661 517Z" fill="#002b5d" stroke="#002b5d"></path><path d="M900 298L830 194L762 303Z" fill="#001f3c" stroke="#001f3c"></path><path d="M274 0L202 0L170 96Z" fill="#003da1" stroke="#003da1"></path><path d="M0 239L135 265L134 167Z" fill="#1b44c2" stroke="#1b44c2"></path><path d="M830 194L808 138L694 207Z" fill="#00254d" stroke="#00254d"></path><path d="M672 62L714 0L577 0Z" fill="#00101c" stroke="#00101c"></path><path d="M61 116L134 167L170 96Z" fill="#00182b" stroke="#00182b"></path><path d="M0 239L0 306L135 265Z" fill="#1b44c2" stroke="#1b44c2"></path><path d="M73 363L0 475L168 433Z" fill="#003da1" stroke="#003da1"></path><path d="M0 306L0 418L73 363Z" fill="#00182b" stroke="#00182b"></path><path d="M78 0L61 116L170 96Z" fill="#0941b1" stroke="#0941b1"></path><path d="M795 0L714 0L672 62Z" fill="#003da1" stroke="#003da1"></path><path d="M61 116L0 239L134 167Z" fill="#003990" stroke="#003990"></path><path d="M0 418L0 475L73 363Z" fill="#003da1" stroke="#003da1"></path><path d="M900 418L900 298L830 385Z" fill="#00306e" stroke="#00306e"></path><path d="M830 385L900 298L762 303Z" fill="#00101c" stroke="#00101c"></path><path d="M830 194L900 81L808 138Z" fill="#002b5d" stroke="#002b5d"></path><path d="M900 418L830 385L823 470Z" fill="#00254d" stroke="#00254d"></path><path d="M900 504L900 418L823 470Z" fill="#00254d" stroke="#00254d"></path><path d="M900 298L900 235L830 194Z" fill="#00357f" stroke="#00357f"></path><path d="M808 138L795 0L672 62Z" fill="#002b5d" stroke="#002b5d"></path><path d="M777 600L900 504L823 470Z" fill="#00254d" stroke="#00254d"></path><path d="M0 475L0 600L134 530Z" fill="#00306e" stroke="#00306e"></path><path d="M900 81L795 0L808 138Z" fill="#00306e" stroke="#00306e"></path><path d="M202 0L78 0L170 96Z" fill="#003990" stroke="#003990"></path><path d="M61 116L0 62L0 239Z" fill="#00306e" stroke="#00306e"></path><path d="M777 600L900 600L900 504Z" fill="#00254d" stroke="#00254d"></path><path d="M78 0L0 62L61 116Z" fill="#00306e" stroke="#00306e"></path><path d="M900 235L900 81L830 194Z" fill="#003da1" stroke="#003da1"></path><path d="M78 0L0 0L0 62Z" fill="#0941b1" stroke="#0941b1"></path><path d="M900 81L900 0L795 0Z" fill="#001f3c" stroke="#001f3c"></path></g></svg>